# xmcd CD database file
#
# Track frame offsets:
#	150
#	26274
#	52791
#	77425
#	99208
#	117366
#	147005
#	171334
#	204108
#	228920
#	246834
#	273053
#	294144
#
# Disc length: 4395 seconds
#
# Revision: 0
# Processed by: cddbd v1.5.1PL0 Copyright (c) Steve Scherf et al.
# Submitted via: CDex 1.51
#
DISCID=9311290d
DTITLE=Richard Leach's 7 Stars Of Jazz - Bordering On The Welsh
DYEAR=2004
DGENRE=Jazz
TTITLE0=S'wonderful
TTITLE1=Sweeping The Blues Away
TTITLE2=That's A Plenty
TTITLE3=Wrap Your Troubles In Dreams
TTITLE4=Willow Weep For Me
TTITLE5=I've Got A Feeling I'm Falling
TTITLE6=Out Of Nowhere
TTITLE7=I Want A Little Girl
TTITLE8=As Long As I Live
TTITLE9=Sweet Lorraine
TTITLE10=Once In A While
TTITLE11=Georgia On My Mind
TTITLE12=Oh Baby !
EXTD=YEAR: 2004
EXTT0=
EXTT1=
EXTT2=
EXTT3=
EXTT4=
EXTT5=
EXTT6=
EXTT7=
EXTT8=
EXTT9=
EXTT10=
EXTT11=
EXTT12=
PLAYORDER=
